<svg id="Capa_3" data-name="Capa 3" xmlns="http://www.w3.org/2000/svg" xmlns:xlink="http://www.w3.org/1999/xlink" viewBox="0 0 227.44 182.52"><defs><style>.cls-1{fill:#2ca5dd;}.cls-2{fill:#062837;}.cls-3{fill:url(#Degradado_sin_nombre_79);}</style><linearGradient id="Degradado_sin_nombre_79" x1="7.66" y1="51.64" x2="227.44" y2="51.64" gradientUnits="userSpaceOnUse"><stop offset="0" stop-color="#fff" stop-opacity="0"/><stop offset="0" stop-color="#f9fdfe" stop-opacity="0.02"/><stop offset="0.03" stop-color="#bfe6f1" stop-opacity="0.25"/><stop offset="0.05" stop-color="#8cd3e7" stop-opacity="0.45"/><stop offset="0.08" stop-color="#60c2dd" stop-opacity="0.62"/><stop offset="0.11" stop-color="#3db5d6" stop-opacity="0.76"/><stop offset="0.14" stop-color="#22aad0" stop-opacity="0.87"/><stop offset="0.17" stop-color="#0fa3cc" stop-opacity="0.94"/><stop offset="0.21" stop-color="#039eca" stop-opacity="0.99"/><stop offset="0.26" stop-color="#009dc9"/><stop offset="0.62" stop-color="#853188"/><stop offset="1" stop-color="#f4a47e"/></linearGradient></defs><title>Mesa de trabajo 10</title><path class="cls-1" d="M6.41,180.53l-1-2.66H2l-1,2.66H0l3.31-8.4h.82l3.29,8.4ZM5.06,177l-1-2.59q-.19-.49-.39-1.21a11,11,0,0,1-.36,1.21l-1,2.59Z"/><path class="cls-1" d="M16.21,174.61a2.34,2.34,0,0,1-.87,2,3.92,3.92,0,0,1-2.48.68h-1v3.29h-1v-8.36h2.17Q16.21,172.17,16.21,174.61Zm-4.33,1.8h.88a3.25,3.25,0,0,0,1.87-.42,1.54,1.54,0,0,0,.58-1.34,1.44,1.44,0,0,0-.54-1.24A2.84,2.84,0,0,0,13,173H11.88Z"/><path class="cls-1" d="M25.61,174.61a2.34,2.34,0,0,1-.87,2,3.92,3.92,0,0,1-2.48.68h-1v3.29h-1v-8.36h2.17Q25.61,172.17,25.61,174.61Zm-4.33,1.8h.88A3.25,3.25,0,0,0,24,176a1.54,1.54,0,0,0,.58-1.34,1.44,1.44,0,0,0-.54-1.24,2.84,2.84,0,0,0-1.69-.41H21.27Z"/><path class="cls-1" d="M34.42,178.31a2.05,2.05,0,0,1-.8,1.72,3.48,3.48,0,0,1-2.17.62,5.45,5.45,0,0,1-2.29-.38v-.94a6.06,6.06,0,0,0,1.12.34,6,6,0,0,0,1.2.13,2.43,2.43,0,0,0,1.46-.37,1.21,1.21,0,0,0,.49-1,1.31,1.31,0,0,0-.17-.71,1.61,1.61,0,0,0-.58-.51,8.17,8.17,0,0,0-1.24-.53,4,4,0,0,1-1.67-1,2.18,2.18,0,0,1-.5-1.49,1.86,1.86,0,0,1,.73-1.54,3,3,0,0,1,1.92-.57,5.65,5.65,0,0,1,2.29.46l-.3.85a5.18,5.18,0,0,0-2-.43,2,2,0,0,0-1.21.33,1.09,1.09,0,0,0-.44.92,1.42,1.42,0,0,0,.16.71,1.51,1.51,0,0,0,.54.51,6.68,6.68,0,0,0,1.16.51,4.6,4.6,0,0,1,1.81,1A2,2,0,0,1,34.42,178.31Z"/><path class="cls-1" d="M50.39,180.53H49.28l-4.57-7h0q.09,1.23.09,2.26v4.75h-.9v-8.36H45l4.56,7h0q0-.15-.05-1t0-1.2v-4.8h.91Z"/><path class="cls-1" d="M59.7,180.53H55v-8.36H59.7V173H56v2.69h3.47v.86H56v3.08H59.7Z"/><path class="cls-1" d="M70.21,172.17v5.41a3,3,0,0,1-.86,2.25,3.31,3.31,0,0,1-2.37.82,3.17,3.17,0,0,1-2.34-.82,3.06,3.06,0,0,1-.83-2.27v-5.39h1v5.46a2.15,2.15,0,0,0,.57,1.61,2.31,2.31,0,0,0,1.68.56,2.22,2.22,0,0,0,1.63-.56,2.17,2.17,0,0,0,.57-1.62v-5.45Z"/><path class="cls-1" d="M82,176.34a5.07,5.07,0,0,1-.65,2.67,3.23,3.23,0,0,1-1.83,1.44l2,2.07H80.13l-1.63-1.89h-.31a3.61,3.61,0,0,1-2.85-1.13,4.64,4.64,0,0,1-1-3.19,4.59,4.59,0,0,1,1-3.17A3.64,3.64,0,0,1,78.2,172,3.56,3.56,0,0,1,81,173.18,4.6,4.6,0,0,1,82,176.34Zm-6.66,0a4,4,0,0,0,.72,2.58,3,3,0,0,0,4.2,0,5,5,0,0,0,0-5.14,2.53,2.53,0,0,0-2.09-.87,2.58,2.58,0,0,0-2.11.88A3.93,3.93,0,0,0,75.36,176.34Z"/><path class="cls-1" d="M92.55,172.17v5.41a3,3,0,0,1-.86,2.25,3.31,3.31,0,0,1-2.37.82,3.17,3.17,0,0,1-2.34-.82,3.06,3.06,0,0,1-.83-2.27v-5.39h1v5.46a2.15,2.15,0,0,0,.57,1.61,2.31,2.31,0,0,0,1.68.56,2.22,2.22,0,0,0,1.63-.56,2.17,2.17,0,0,0,.57-1.62v-5.45Z"/><path class="cls-1" d="M97.1,180.53v-8.36h1v8.36Z"/><path class="cls-1" d="M109.24,180.53h-1.11l-4.57-7h0q.09,1.23.09,2.26v4.75h-.9v-8.36h1.1l4.56,7h0q0-.15-.05-1t0-1.2v-4.8h.91Z"/><path class="cls-1" d="M119.14,180.53l-1-2.66h-3.35l-1,2.66h-1l3.31-8.4h.82l3.29,8.4ZM117.8,177l-1-2.59q-.19-.49-.39-1.21a11,11,0,0,1-.36,1.21l-1,2.59Z"/><path class="cls-1" d="M128.36,178.31a2.05,2.05,0,0,1-.8,1.72,3.48,3.48,0,0,1-2.17.62,5.45,5.45,0,0,1-2.29-.38v-.94a6.06,6.06,0,0,0,1.12.34,6,6,0,0,0,1.2.13,2.43,2.43,0,0,0,1.46-.37,1.21,1.21,0,0,0,.49-1,1.31,1.31,0,0,0-.17-.71,1.61,1.61,0,0,0-.58-.51,8.17,8.17,0,0,0-1.24-.53,4,4,0,0,1-1.67-1,2.18,2.18,0,0,1-.5-1.49,1.86,1.86,0,0,1,.73-1.54,3,3,0,0,1,1.92-.57,5.65,5.65,0,0,1,2.29.46l-.3.85a5.18,5.18,0,0,0-2-.43,2,2,0,0,0-1.21.33,1.09,1.09,0,0,0-.44.92,1.42,1.42,0,0,0,.16.71,1.51,1.51,0,0,0,.54.51,6.68,6.68,0,0,0,1.16.51,4.6,4.6,0,0,1,1.81,1A2,2,0,0,1,128.36,178.31Z"/><path class="cls-1" d="M144.48,176.27a4.22,4.22,0,0,1-1.12,3.17,4.45,4.45,0,0,1-3.24,1.1H137.8v-8.36h2.56a3.75,3.75,0,0,1,4.11,4.1Zm-1,0a3.37,3.37,0,0,0-.82-2.46,3.29,3.29,0,0,0-2.44-.83h-1.41v6.68H140a3.6,3.6,0,0,0,2.61-.86A3.38,3.38,0,0,0,143.45,176.31Z"/><path class="cls-1" d="M153.35,180.53h-4.66v-8.36h4.66V173h-3.69v2.69h3.47v.86h-3.47v3.08h3.69Z"/><path class="cls-1" d="M167.65,178.31a2.05,2.05,0,0,1-.8,1.72,3.48,3.48,0,0,1-2.17.62,5.46,5.46,0,0,1-2.29-.38v-.94a6.07,6.07,0,0,0,1.12.34,6,6,0,0,0,1.2.13,2.43,2.43,0,0,0,1.46-.37,1.21,1.21,0,0,0,.49-1,1.32,1.32,0,0,0-.17-.71,1.61,1.61,0,0,0-.58-.51,8.18,8.18,0,0,0-1.25-.53,4,4,0,0,1-1.67-1,2.18,2.18,0,0,1-.5-1.49,1.86,1.86,0,0,1,.73-1.54,3,3,0,0,1,1.92-.57,5.65,5.65,0,0,1,2.29.46l-.3.85a5.18,5.18,0,0,0-2-.43,2,2,0,0,0-1.21.33,1.09,1.09,0,0,0-.43.92,1.42,1.42,0,0,0,.16.71,1.51,1.51,0,0,0,.54.51,6.65,6.65,0,0,0,1.16.51,4.6,4.6,0,0,1,1.81,1A2,2,0,0,1,167.65,178.31Z"/><path class="cls-1" d="M177,180.53l-1-2.66h-3.35l-1,2.66h-1l3.31-8.4h.82l3.29,8.4ZM175.62,177l-1-2.59q-.19-.49-.39-1.21a11,11,0,0,1-.36,1.21l-1,2.59Z"/><path class="cls-1" d="M181.46,180.53v-8.36h1v7.48h3.69v.88Z"/><path class="cls-1" d="M196.2,172.17v5.41a3,3,0,0,1-.86,2.25,3.31,3.31,0,0,1-2.37.82,3.17,3.17,0,0,1-2.34-.82,3.06,3.06,0,0,1-.83-2.27v-5.39h1v5.46a2.15,2.15,0,0,0,.57,1.61,2.31,2.31,0,0,0,1.68.56,2.23,2.23,0,0,0,1.63-.56,2.17,2.17,0,0,0,.57-1.62v-5.45Z"/><path class="cls-1" d="M207.43,176.27a4.22,4.22,0,0,1-1.12,3.17,4.44,4.44,0,0,1-3.23,1.1h-2.32v-8.36h2.56a3.75,3.75,0,0,1,4.11,4.1Zm-1,0a3.37,3.37,0,0,0-.82-2.46,3.29,3.29,0,0,0-2.44-.83h-1.41v6.68h1.18a3.6,3.6,0,0,0,2.61-.86A3.39,3.39,0,0,0,206.4,176.31Z"/><path class="cls-2" d="M22,151.79a1.57,1.57,0,0,1-.84-.23,1.34,1.34,0,0,1-.58-.71l-3-6.88-5.14-11.87-8.17,18.8a1.38,1.38,0,0,1-1.33.89,1.49,1.49,0,0,1-1-.35,1.4,1.4,0,0,1-.48-.87,1.23,1.23,0,0,1,.07-.7l9.54-22.31a1.34,1.34,0,0,1,.61-.72,1.62,1.62,0,0,1,.76-.17,1.44,1.44,0,0,1,1.41.91l9.52,22.25a1.61,1.61,0,0,1,.1.57,1.32,1.32,0,0,1-.5,1.07A1.56,1.56,0,0,1,22,151.79Z"/><path class="cls-2" d="M96.1,152.11c-1.88,0-2-1.15-2-1.5,0-.73.53-1.5,2-1.5h9.1a7.54,7.54,0,0,0,6.27-2.68,11.26,11.26,0,0,0,2.1-7.13,13,13,0,0,0-.92-5,7,7,0,0,0-2.74-3.23c-1.07-.74-2.48-1.06-4.72-1.06h-8.9a3.86,3.86,0,0,1-1.1-.15,1.37,1.37,0,0,1-1.11-1.33c0-.36.16-1.52,2.17-1.52h9.3a10.37,10.37,0,0,1,6.15,1.58,10.17,10.17,0,0,1,3.7,4.53,15.59,15.59,0,0,1,1.17,6.12,15.87,15.87,0,0,1-1.17,6.26,10.52,10.52,0,0,1-3.69,4.7,10.75,10.75,0,0,1-6.16,1.84H96.1Z"/><path class="cls-2" d="M197.37,152.12a12.06,12.06,0,0,1-4.87-.92,14.52,14.52,0,0,1-4.08-2.82,1.42,1.42,0,0,1-.45-1.05,1.47,1.47,0,0,1,.47-1.05,1.49,1.49,0,0,1,1.07-.48,1.55,1.55,0,0,1,1.15.54,8.47,8.47,0,0,0,3,2.17,9.34,9.34,0,0,0,3.69.75,6.94,6.94,0,0,0,4.06-1.11,3.07,3.07,0,0,0,1.45-2.68,3.32,3.32,0,0,0-.74-2.17,5.83,5.83,0,0,0-1.93-1.47,34.14,34.14,0,0,0-3.44-1.36,38.61,38.61,0,0,1-3.89-1.58,7.48,7.48,0,0,1-2.6-2.13,5.89,5.89,0,0,1-1.14-3.73,5.82,5.82,0,0,1,1.1-3.43,7.14,7.14,0,0,1,3-2.37,11,11,0,0,1,4.41-.84,11.75,11.75,0,0,1,4.24.77,7.9,7.9,0,0,1,3.28,2.26,2,2,0,0,1,.53,1.19,1.36,1.36,0,0,1-.54,1.07,1.64,1.64,0,0,1-1.07.39,1.33,1.33,0,0,1-1-.46,6.26,6.26,0,0,0-2.29-1.73,7.5,7.5,0,0,0-3.12-.64,7.11,7.11,0,0,0-4.05,1.08,3,3,0,0,0-1.45,2.67,2.88,2.88,0,0,0,.68,2,5.77,5.77,0,0,0,1.93,1.44,31.3,31.3,0,0,0,3.18,1.26,35.76,35.76,0,0,1,4,1.58,7.67,7.67,0,0,1,2.75,2.27,6.49,6.49,0,0,1,1.18,4,5.67,5.67,0,0,1-1.1,3.33,7.24,7.24,0,0,1-3.05,2.39A10.83,10.83,0,0,1,197.37,152.12Z"/><path class="cls-2" d="M67.06,152a1.45,1.45,0,0,1-1.17-.56L51.21,132.34v18.29a1.27,1.27,0,0,1-.46,1,1.45,1.45,0,0,1-1,.35,1.42,1.42,0,0,1-1-.38,1.29,1.29,0,0,1-.41-1V128.18a1.37,1.37,0,0,1,.46-1.08,1.42,1.42,0,0,1,.94-.35,1.44,1.44,0,0,1,1.1.49l14.86,19.25V128.15a1.36,1.36,0,0,1,.43-1,1.43,1.43,0,0,1,1-.39,1.38,1.38,0,0,1,1.44,1.4v22.31a1.43,1.43,0,0,1-.47,1.13A1.53,1.53,0,0,1,67.06,152Z"/><path class="cls-2" d="M143.12,130a1.51,1.51,0,1,1,0-3h19.45a1.51,1.51,0,1,1,0,3Z"/><path class="cls-2" d="M143.12,152.12a1.51,1.51,0,0,1,0-3h19.45a1.51,1.51,0,1,1,0,3Z"/><rect class="cls-2" x="150.81" y="130.08" width="3.02" height="19.01" rx="0.93" ry="0.93" transform="translate(291.91 -12.74) rotate(90)"/><path class="cls-3" d="M217.34,82.07c-11.88-1.14-15.67-6.88-19.67-13-5.29-8-10.75-16.3-34.28-9.63l0,.11C155.6,60.73,151.32,70.5,147.18,80c-.8,1.83-1.61,3.67-2.44,5.43a92.27,92.27,0,0,1-4.31-9.13c-3.49-8.41-7-19-10.39-29.29-3.36-10.15-6.29-18.81-9-25.78C116.54,9.49,112.78,2.69,108.61,1.6c-.92-.3-13.28-4.15-22.47,1.3C80.28,6.08,75.58,17.69,69.08,33.75,65.52,42.56,61.52,52.43,56.83,62c-4.24-6.35-8.32-12.06-13.3-12.06-3.84,0-7.82,4.14-13.33,9.87-6.12,6.37-13.74,14.3-22.54,17.42l1.44,4c9.75-3.47,17.76-11.8,24.19-18.49,4-4.2,8.22-8.55,10.24-8.55,3,0,7.14,6.26,10.49,11.3,1.48,2.23,2.94,4.41,4.41,6.32a26.68,26.68,0,0,0,2.82,3.27c1.91,1.89,3.89,3.12,6,3.24a8.23,8.23,0,0,0,1.08.07c9.54,0,16.42-19.56,23.71-40.27,1.74-4.94,3.71-10.54,5.73-15.67,3.05,7.81,6.2,17.54,9.51,27.74,10.13,31.3,16.9,50.43,25.24,51.69l0,.21a56.2,56.2,0,0,0,10.88,1.18c18,0,22.72-11.77,27-22.33,1.62-4,3.17-7.84,5.34-10.93,1.21,1.31,2.43,2.75,3.69,4.24,5.4,6.39,11.52,13.63,20.85,14.57a20.55,20.55,0,0,0,2.31.1,49.09,49.09,0,0,0,15.24-2.7l9.64-3.2ZM88,36.71C82.46,52.49,74.85,74.12,68.35,74.12c-1.5,0-3-.94-4.39-2.37a33.19,33.19,0,0,1-2.39-2.88c-.67-.92-1.32-1.91-2-2.9,5.23-10.33,9.58-21.09,13.43-30.61C78.76,21.25,83.69,9.06,88.2,6.66l.09-.05c4.4-2.63,10-2.55,14-2l-.21.26a29.15,29.15,0,0,0-4.49,7.29C94.63,18.17,91.61,26.51,88,36.71Zm23.37,12.17c-3.9-12-7.59-23.44-11.2-31.94.43-1.08.85-2.07,1.28-3a46.62,46.62,0,0,1,2.26-4.19,11,11,0,0,1,3.72-3.84c2.87,1.62,6.18,8.22,9.5,16.65,2.71,7,5.52,15.48,8.45,24.3,3.53,10.63,7.14,21.47,10.76,30.27l.09.23c.28.69.57,1.37.85,2l.39.9.43,1q.35.79.71,1.55l.33.7q.35.73.7,1.43l.45.89.47.9c.23.43.46.84.69,1.25l.27.47c.29.5.58,1,.86,1.42l.05.08c-1.78,3.16-3.7,5.72-5.9,7a5.26,5.26,0,0,1-3.32.71C126.91,96.83,117.94,69.11,111.39,48.88Zm55,30.47c-4.23,10.52-8.24,20.52-25.3,19.57.17-.16.33-.33.5-.49l.06-.06L142,98a32,32,0,0,0,4.87-7l.63-1.16-.08-.11c1.28-2.54,2.48-5.27,3.66-8C155,72.88,159,63.76,164.94,63.76c3.46,0,5.4,1.33,7.63,3.27C169.89,70.66,168.12,75.07,166.4,79.35Zm34.33,5.22c-7.65-.77-12.94-7-18.05-13.07-1.38-1.63-2.77-3.27-4.21-4.79l.07-.08-1.13-1a29.15,29.15,0,0,0-4.2-3.54l-.24-.17-.23-.16c13.54-2.11,17.06,3.23,21.34,9.72,3.1,4.7,6.5,9.86,13.72,12.76A30.93,30.93,0,0,1,200.73,84.56Z"/></svg>